 <svg version="1.0" xmlns="http://www.w3.org/2000/svg" width="700.000000pt" height="663.000000pt" viewBox="0 0 700.000000 663.000000" preserveAspectRatio="xMidYMid meet">
<metadata>
Created by potrace 1.12, written by Peter Selinger 2001-2015
</metadata>
<g transform="translate(0.000000,663.000000) scale(0.100000,-0.100000)" fill="#000000" stroke="none">
<path d="M3115 6275 c-262 -27 -445 -65 -670 -140 -1163 -390 -1985 -1464
-2085 -2725 -14 -164 -9 -447 10 -602 63 -529 269 -1065 574 -1491 206 -288
526 -597 799 -770 159 -101 186 -117 317 -183 336 -168 678 -267 1040 -299
602 -54 1159 56 1676 329 506 268 947 696 1227 1191 279 495 420 1025 420
1585 0 626 -175 1211 -522 1750 -137 212 -414 520 -624 692 -405 331 -930 567
-1415 637 -292 43 -506 50 -747 26z m650 -235 c95 -17 240 -48 270 -59 46 -16
267 -82 295 -88 14 -3 89 -36 168 -74 78 -38 147 -69 152 -69 5 0 55 -28 110
-62 56 -35 118 -72 138 -83 20 -12 75 -51 122 -89 47 -37 112 -88 144 -114 71
-56 290 -277 315 -318 10 -16 28 -38 41 -49 31 -27 188 -245 224 -308 15 -29
34 -59 41 -67 38 -45 190 -374 228 -495 51 -163 66 -214 72 -245 3 -19 10 -44
16 -55 9 -20 43 -184 59 -285 11 -71 11 -739 0 -805 -17 -109 -50 -266 -65
-316 -28 -93 -63 -212 -76 -259 -7 -25 -27 -78 -46 -118 -18 -40 -33 -77 -33
-82 0 -6 -11 -32 -24 -58 -14 -26 -36 -72 -51 -102 -27 -57 -36 -73 -98 -178
-20 -35 -37 -65 -37 -68 0 -2 -22 -33 -48 -67 -26 -34 -68 -91 -94 -127 -25
-36 -56 -74 -68 -85 -13 -11 -30 -32 -40 -47 -31 -50 -246 -266 -330 -330 -19
-15 -84 -65 -144 -112 -60 -47 -113 -86 -118 -86 -4 0 -48 -25 -96 -56 -126
-82 -130 -84 -143 -84 -6 0 -71 -29 -144 -64 -117 -56 -208 -89 -390 -141 -27
-8 -72 -21 -100 -29 -27 -9 -107 -27 -177 -41 -121 -24 -145 -25 -451 -25
-355 0 -421 7 -652 70 -60 17 -135 37 -165 45 -104 29 -205 68 -326 126 -67
33 -126 59 -131 59 -11 0 -74 37 -175 103 -31 20 -61 37 -65 37 -4 0 -19 10
-33 21 -14 11 -65 51 -115 89 -159 123 -239 193 -326 286 -133 144 -191 212
-234 274 -22 31 -61 85 -88 119 -26 34 -47 65 -48 69 0 4 -25 48 -55 97 -30
50 -61 106 -70 125 -8 19 -25 55 -36 80 -129 277 -197 496 -263 850 -11 55
-14 167 -15 420 0 309 2 357 21 460 61 332 178 686 304 920 47 88 96 170 105
175 5 3 10 13 10 20 0 8 21 42 48 76 26 34 64 87 85 118 21 31 58 76 81 101
24 25 53 58 65 75 49 65 261 275 278 275 5 0 20 12 34 26 26 27 234 186 259
198 8 3 34 19 57 34 94 61 165 102 177 102 6 0 61 25 121 55 109 55 235 102
390 145 44 12 96 28 115 35 31 11 82 22 255 55 56 10 709 10 770 0z"></path>
<path d="M1962 5097 c-5 -7 -19 -39 -31 -72 -13 -33 -31 -81 -42 -106 -31 -78
-89 -243 -89 -256 0 -12 70 -35 665 -228 182 -59 395 -128 475 -155 105 -35
149 -45 158 -37 7 5 28 38 48 73 27 49 37 80 44 144 5 46 7 87 4 92 -7 12 -75
45 -229 113 -71 31 -213 94 -315 140 -315 142 -593 267 -637 286 -31 13 -44
15 -51 6z"></path>
<path d="M4675 4976 c-38 -18 -196 -92 -350 -165 -154 -73 -386 -183 -515
-244 -129 -61 -243 -118 -252 -126 -28 -25 -8 -126 44 -229 24 -46 46 -86 50
-88 9 -6 42 5 767 247 417 139 527 179 529 193 2 10 -3 35 -11 55 -9 20 -48
116 -88 214 -52 127 -76 177 -88 177 -9 -1 -47 -16 -86 -34z"></path>
<path d="M2418 3982 c-95 -82 -198 -171 -228 -199 l-54 -50 18 -64 c10 -35 26
-89 34 -119 9 -30 19 -59 23 -63 6 -8 41 18 219 163 172 139 173 140 217 140
27 0 100 -21 204 -61 89 -33 167 -58 173 -56 7 3 17 24 23 48 6 24 21 81 33
127 14 49 19 87 14 92 -8 8 -425 168 -481 184 -17 6 -54 -21 -195 -142z"></path>
<path d="M3845 4039 c-126 -43 -231 -78 -232 -79 -21 -3 59 -290 80 -290 7 0
77 25 155 55 140 54 145 55 203 46 52 -9 75 -22 209 -118 231 -165 244 -173
253 -164 10 10 67 205 67 231 0 10 -17 33 -37 49 -171 138 -451 351 -461 350
-4 0 -110 -36 -237 -80z"></path>
<path d="M3190 2497 c-3 -3 -52 -11 -110 -17 -117 -13 -193 -33 -488 -126
-281 -90 -454 -185 -647 -354 -216 -190 -375 -393 -375 -479 0 -79 91 -65 200
31 80 71 291 188 375 208 17 4 66 18 110 30 267 73 332 84 352 58 5 -7 29 -94
52 -193 78 -328 118 -422 230 -538 87 -89 139 -121 233 -142 64 -14 95 -15
186 -7 148 13 234 56 343 168 68 71 80 90 121 189 91 218 121 321 123 421 1
50 5 97 9 103 9 14 187 15 258 0 82 -16 179 -55 352 -141 188 -93 188 -93 296
-202 47 -47 90 -86 97 -86 24 0 63 23 78 47 15 22 13 27 -27 96 -72 124 -147
218 -272 342 -177 176 -257 237 -386 297 -309 143 -330 152 -520 202 -220 57
-309 74 -425 80 -60 3 -121 9 -135 12 -14 3 -27 3 -30 1z m-69 -273 c8 -8 21
-14 27 -14 6 0 19 -15 29 -32 23 -43 22 -199 -2 -281 -16 -57 -16 -60 5 -110
60 -139 124 -144 169 -12 18 50 21 84 21 222 l0 162 27 26 c24 21 37 25 91 25
34 0 79 -7 99 -15 19 -8 44 -15 55 -15 10 0 41 -11 68 -25 l50 -25 0 -158 c0
-108 -4 -171 -14 -202 -8 -25 -24 -78 -36 -118 -30 -102 -77 -188 -151 -278
-102 -123 -208 -184 -319 -184 -63 0 -69 2 -157 59 -102 66 -124 93 -177 217
-59 135 -79 362 -58 643 7 83 7 85 42 105 61 35 196 41 231 10z"></path>
</g>
</svg>